<?xml version="1.0" encoding="UTF-8" standalone="no"?>
<!DOCTYPE svg PUBLIC "-//W3C//DTD SVG 1.1//EN"
 "http://www.w3.org/Graphics/SVG/1.1/DTD/svg11.dtd">
<!-- Generated by graphviz version 14.1.3 (20260303.0454)
 -->
<!-- Pages: 1 -->
<svg width="328pt" height="132pt"
 viewBox="0.00 0.00 328.00 132.00" xmlns="http://www.w3.org/2000/svg" xmlns:xlink="http://www.w3.org/1999/xlink">
<g id="graph0" class="graph" transform="scale(1 1) rotate(0) translate(4 128)">
<polygon fill="white" stroke="none" points="-4,4 -4,-128 324,-128 324,4 -4,4"/>
<g id="clust3" class="cluster">
<title>cluster_associated</title>
</g>
<!-- its&#45;location_LocationGroup -->
<g id="node1" class="node">
<title>its&#45;location_LocationGroup</title>
<g id="a_node1"><a xlink:href="https://w3id.org/itsdata/location/v1/LocationGroup" xlink:title="&lt;TABLE&gt;">
<polygon fill="lightgray" stroke="none" points="1,-97.88 1,-114.12 142.5,-114.12 142.5,-97.88 1,-97.88"/>
<text xml:space="preserve" text-anchor="start" x="2" y="-101.88" font-family="Arial" font-size="12.00">its&#45;location:LocationGroup</text>
<polygon fill="none" stroke="black" points="0,-96.88 0,-115.12 143.5,-115.12 143.5,-96.88 0,-96.88"/>
</a>
</g>
</g>
<!-- PublicTransportSystemThing -->
<g id="node2" class="node">
<title>PublicTransportSystemThing</title>
<g id="a_node2"><a xlink:href="../PublicTransportSystemThing" xlink:title="&lt;TABLE&gt;">
<polygon fill="lightgray" stroke="none" points="162.5,-97.88 162.5,-114.12 319,-114.12 319,-97.88 162.5,-97.88"/>
<text xml:space="preserve" text-anchor="start" x="163.5" y="-101.88" font-family="Arial" font-size="12.00">PublicTransportSystemThing</text>
<polygon fill="none" stroke="black" points="161.5,-96.88 161.5,-115.12 320,-115.12 320,-96.88 161.5,-96.88"/>
</a>
</g>
</g>
<!-- GroupOfLines -->
<g id="node3" class="node">
<title>GroupOfLines</title>
<g id="a_node3"><a xlink:href="../GroupOfLines" xlink:title="&lt;TABLE&gt;">
<polygon fill="lightgray" stroke="none" points="117.62,-25.88 117.62,-42.12 193.88,-42.12 193.88,-25.88 117.62,-25.88"/>
<text xml:space="preserve" text-anchor="start" x="118.62" y="-29.88" font-family="Arial" font-size="12.00">GroupOfLines</text>
<polygon fill="none" stroke="black" points="116.62,-24.88 116.62,-43.12 194.88,-43.12 194.88,-24.88 116.62,-24.88"/>
</a>
</g>
</g>
<!-- GroupOfLines&#45;&gt;its&#45;location_LocationGroup -->
<g id="edge1" class="edge">
<title>GroupOfLines&#45;&gt;its&#45;location_LocationGroup</title>
<path fill="none" stroke="black" d="M135.6,-51.79C125.21,-60.45 112.35,-71.17 100.89,-80.71"/>
<polygon fill="none" stroke="black" points="98.69,-78 93.25,-87.09 103.17,-83.37 98.69,-78"/>
</g>
<!-- GroupOfLines&#45;&gt;PublicTransportSystemThing -->
<g id="edge2" class="edge">
<title>GroupOfLines&#45;&gt;PublicTransportSystemThing</title>
<path fill="none" stroke="black" d="M176.14,-51.79C186.76,-60.53 199.93,-71.38 211.6,-81"/>
<polygon fill="none" stroke="black" points="209.06,-83.44 219.01,-87.09 213.51,-78.03 209.06,-83.44"/>
</g>
<!-- Invis -->
</g>
</svg>
