<?xml version="1.0" encoding="UTF-8" standalone="no"?>
<!DOCTYPE svg PUBLIC "-//W3C//DTD SVG 1.1//EN"
 "http://www.w3.org/Graphics/SVG/1.1/DTD/svg11.dtd">
<!-- Generated by graphviz version 14.1.3 (20260303.0454)
 -->
<!-- Pages: 1 -->
<svg width="199pt" height="132pt"
 viewBox="0.00 0.00 199.00 132.00" xmlns="http://www.w3.org/2000/svg" xmlns:xlink="http://www.w3.org/1999/xlink">
<g id="graph0" class="graph" transform="scale(1 1) rotate(0) translate(4 128)">
<polygon fill="white" stroke="none" points="-4,4 -4,-128 195.25,-128 195.25,4 -4,4"/>
<g id="clust3" class="cluster">
<title>cluster_associated</title>
</g>
<!-- TravelledWayLane -->
<g id="node1" class="node">
<title>TravelledWayLane</title>
<g id="a_node1"><a xlink:href="../TravelledWayLane" xlink:title="&lt;TABLE&gt;">
<polygon fill="lightgray" stroke="none" points="1,-97.88 1,-114.12 103.5,-114.12 103.5,-97.88 1,-97.88"/>
<text xml:space="preserve" text-anchor="start" x="2" y="-101.88" font-family="Arial" font-size="12.00">TravelledWayLane</text>
<polygon fill="none" stroke="black" points="0,-96.88 0,-115.12 104.5,-115.12 104.5,-96.88 0,-96.88"/>
</a>
</g>
</g>
<!-- MicromobilityLane -->
<g id="node2" class="node">
<title>MicromobilityLane</title>
<g id="a_node2"><a xlink:href="../MicromobilityLane" xlink:title="&lt;TABLE&gt;">
<polygon fill="lightgray" stroke="none" points="2.5,-25.88 2.5,-42.12 102,-42.12 102,-25.88 2.5,-25.88"/>
<text xml:space="preserve" text-anchor="start" x="3.5" y="-29.88" font-family="Arial" font-size="12.00">MicromobilityLane</text>
<polygon fill="none" stroke="black" points="1.5,-24.88 1.5,-43.12 103,-43.12 103,-24.88 1.5,-24.88"/>
</a>
</g>
</g>
<!-- MicromobilityLane&#45;&gt;TravelledWayLane -->
<g id="edge1" class="edge">
<title>MicromobilityLane&#45;&gt;TravelledWayLane</title>
<path fill="none" stroke="black" d="M52.25,-51.79C52.25,-59.25 52.25,-68.24 52.25,-76.69"/>
<polygon fill="none" stroke="black" points="48.75,-76.54 52.25,-86.54 55.75,-76.54 48.75,-76.54"/>
</g>
<!-- Invis -->
</g>
</svg>
