<?xml version="1.0" encoding="UTF-8" standalone="no"?>
<!DOCTYPE svg PUBLIC "-//W3C//DTD SVG 1.1//EN"
 "http://www.w3.org/Graphics/SVG/1.1/DTD/svg11.dtd">
<!-- Generated by graphviz version 14.1.3 (20260303.0454)
 -->
<!-- Pages: 1 -->
<svg width="236pt" height="132pt"
 viewBox="0.00 0.00 236.00 132.00" xmlns="http://www.w3.org/2000/svg" xmlns:xlink="http://www.w3.org/1999/xlink">
<g id="graph0" class="graph" transform="scale(1 1) rotate(0) translate(4 128)">
<polygon fill="white" stroke="none" points="-4,4 -4,-128 231.88,-128 231.88,4 -4,4"/>
<g id="clust3" class="cluster">
<title>cluster_associated</title>
</g>
<!-- TravelledWaySection -->
<g id="node1" class="node">
<title>TravelledWaySection</title>
<g id="a_node1"><a xlink:href="../TravelledWaySection" xlink:title="&lt;TABLE&gt;">
<polygon fill="lightgray" stroke="none" points="11.88,-97.88 11.88,-114.12 127.88,-114.12 127.88,-97.88 11.88,-97.88"/>
<text xml:space="preserve" text-anchor="start" x="12.88" y="-101.88" font-family="Arial" font-size="12.00">TravelledWaySection</text>
<polygon fill="none" stroke="black" points="10.88,-96.88 10.88,-115.12 128.88,-115.12 128.88,-96.88 10.88,-96.88"/>
</a>
</g>
</g>
<!-- MicromobilityPathSection -->
<g id="node2" class="node">
<title>MicromobilityPathSection</title>
<g id="a_node2"><a xlink:href="../MicromobilityPathSection" xlink:title="&lt;TABLE&gt;">
<polygon fill="lightgray" stroke="none" points="1,-25.88 1,-42.12 138.75,-42.12 138.75,-25.88 1,-25.88"/>
<text xml:space="preserve" text-anchor="start" x="2" y="-29.88" font-family="Arial" font-size="12.00">MicromobilityPathSection</text>
<polygon fill="none" stroke="black" points="0,-24.88 0,-43.12 139.75,-43.12 139.75,-24.88 0,-24.88"/>
</a>
</g>
</g>
<!-- MicromobilityPathSection&#45;&gt;TravelledWaySection -->
<g id="edge1" class="edge">
<title>MicromobilityPathSection&#45;&gt;TravelledWaySection</title>
<path fill="none" stroke="black" d="M69.88,-51.79C69.88,-59.25 69.88,-68.24 69.88,-76.69"/>
<polygon fill="none" stroke="black" points="66.38,-76.54 69.88,-86.54 73.38,-76.54 66.38,-76.54"/>
</g>
<!-- Invis -->
</g>
</svg>
