<?xml version="1.0" encoding="UTF-8" standalone="no"?>
<!DOCTYPE svg PUBLIC "-//W3C//DTD SVG 1.1//EN"
 "http://www.w3.org/Graphics/SVG/1.1/DTD/svg11.dtd">
<!-- Generated by graphviz version 14.1.3 (20260303.0454)
 -->
<!-- Pages: 1 -->
<svg width="214pt" height="132pt"
 viewBox="0.00 0.00 214.00 132.00" xmlns="http://www.w3.org/2000/svg" xmlns:xlink="http://www.w3.org/1999/xlink">
<g id="graph0" class="graph" transform="scale(1 1) rotate(0) translate(4 128)">
<polygon fill="white" stroke="none" points="-4,4 -4,-128 210.38,-128 210.38,4 -4,4"/>
<g id="clust3" class="cluster">
<title>cluster_associated</title>
</g>
<!-- TransportNetwork -->
<g id="node1" class="node">
<title>TransportNetwork</title>
<g id="a_node1"><a xlink:href="../TransportNetwork" xlink:title="&lt;TABLE&gt;">
<polygon fill="lightgray" stroke="none" points="11.12,-97.88 11.12,-114.12 107.62,-114.12 107.62,-97.88 11.12,-97.88"/>
<text xml:space="preserve" text-anchor="start" x="12.12" y="-101.88" font-family="Arial" font-size="12.00">TransportNetwork</text>
<polygon fill="none" stroke="black" points="10.12,-96.88 10.12,-115.12 108.62,-115.12 108.62,-96.88 10.12,-96.88"/>
</a>
</g>
</g>
<!-- MicromobilityNetwork -->
<g id="node2" class="node">
<title>MicromobilityNetwork</title>
<g id="a_node2"><a xlink:href="../MicromobilityNetwork" xlink:title="&lt;TABLE&gt;">
<polygon fill="lightgray" stroke="none" points="1,-25.88 1,-42.12 117.75,-42.12 117.75,-25.88 1,-25.88"/>
<text xml:space="preserve" text-anchor="start" x="2" y="-29.88" font-family="Arial" font-size="12.00">MicromobilityNetwork</text>
<polygon fill="none" stroke="black" points="0,-24.88 0,-43.12 118.75,-43.12 118.75,-24.88 0,-24.88"/>
</a>
</g>
</g>
<!-- MicromobilityNetwork&#45;&gt;TransportNetwork -->
<g id="edge1" class="edge">
<title>MicromobilityNetwork&#45;&gt;TransportNetwork</title>
<path fill="none" stroke="black" d="M59.38,-51.79C59.38,-59.25 59.38,-68.24 59.38,-76.69"/>
<polygon fill="none" stroke="black" points="55.88,-76.54 59.38,-86.54 62.88,-76.54 55.88,-76.54"/>
</g>
<!-- Invis -->
</g>
</svg>
