<?xml version="1.0" encoding="UTF-8" standalone="no"?>
<!DOCTYPE svg PUBLIC "-//W3C//DTD SVG 1.1//EN"
 "http://www.w3.org/Graphics/SVG/1.1/DTD/svg11.dtd">
<!-- Generated by graphviz version 14.1.3 (20260303.0454)
 -->
<!-- Pages: 1 -->
<svg width="207pt" height="132pt"
 viewBox="0.00 0.00 207.00 132.00" xmlns="http://www.w3.org/2000/svg" xmlns:xlink="http://www.w3.org/1999/xlink">
<g id="graph0" class="graph" transform="scale(1 1) rotate(0) translate(4 128)">
<polygon fill="white" stroke="none" points="-4,4 -4,-128 202.62,-128 202.62,4 -4,4"/>
<g id="clust3" class="cluster">
<title>cluster_associated</title>
</g>
<!-- TransportNetworkThing -->
<g id="node1" class="node">
<title>TransportNetworkThing</title>
<g id="a_node1"><a xlink:href="../TransportNetworkThing" xlink:title="&lt;TABLE&gt;">
<polygon fill="lightgray" stroke="none" points="1,-97.88 1,-114.12 128.25,-114.12 128.25,-97.88 1,-97.88"/>
<text xml:space="preserve" text-anchor="start" x="2" y="-101.88" font-family="Arial" font-size="12.00">TransportNetworkThing</text>
<polygon fill="none" stroke="black" points="0,-96.88 0,-115.12 129.25,-115.12 129.25,-96.88 0,-96.88"/>
</a>
</g>
</g>
<!-- NetworkElement -->
<g id="node2" class="node">
<title>NetworkElement</title>
<g id="a_node2"><a xlink:href="../NetworkElement" xlink:title="&lt;TABLE&gt;">
<polygon fill="lightgray" stroke="none" points="19.38,-25.88 19.38,-42.12 109.88,-42.12 109.88,-25.88 19.38,-25.88"/>
<text xml:space="preserve" text-anchor="start" x="20.38" y="-29.88" font-family="Arial" font-size="12.00">NetworkElement</text>
<polygon fill="none" stroke="black" points="18.38,-24.88 18.38,-43.12 110.88,-43.12 110.88,-24.88 18.38,-24.88"/>
</a>
</g>
</g>
<!-- NetworkElement&#45;&gt;TransportNetworkThing -->
<g id="edge1" class="edge">
<title>NetworkElement&#45;&gt;TransportNetworkThing</title>
<path fill="none" stroke="black" d="M64.62,-51.79C64.62,-59.25 64.62,-68.24 64.62,-76.69"/>
<polygon fill="none" stroke="black" points="61.13,-76.54 64.63,-86.54 68.13,-76.54 61.13,-76.54"/>
</g>
<!-- Invis -->
</g>
</svg>
