<?xml version="1.0" encoding="UTF-8" standalone="no"?>
<!DOCTYPE svg PUBLIC "-//W3C//DTD SVG 1.1//EN"
 "http://www.w3.org/Graphics/SVG/1.1/DTD/svg11.dtd">
<!-- Generated by graphviz version 14.1.3 (20260303.0454)
 -->
<!-- Pages: 1 -->
<svg width="312pt" height="132pt"
 viewBox="0.00 0.00 312.00 132.00" xmlns="http://www.w3.org/2000/svg" xmlns:xlink="http://www.w3.org/1999/xlink">
<g id="graph0" class="graph" transform="scale(1 1) rotate(0) translate(4 128)">
<polygon fill="white" stroke="none" points="-4,4 -4,-128 308.25,-128 308.25,4 -4,4"/>
<g id="clust3" class="cluster">
<title>cluster_associated</title>
</g>
<!-- PublicTransportSystemThing -->
<g id="node1" class="node">
<title>PublicTransportSystemThing</title>
<g id="a_node1"><a xlink:href="../PublicTransportSystemThing" xlink:title="&lt;TABLE&gt;">
<polygon fill="lightgray" stroke="none" points="1,-97.88 1,-114.12 157.5,-114.12 157.5,-97.88 1,-97.88"/>
<text xml:space="preserve" text-anchor="start" x="2" y="-101.88" font-family="Arial" font-size="12.00">PublicTransportSystemThing</text>
<polygon fill="none" stroke="black" points="0,-96.88 0,-115.12 158.5,-115.12 158.5,-96.88 0,-96.88"/>
</a>
</g>
</g>
<!-- TransportNetwork -->
<g id="node2" class="node">
<title>TransportNetwork</title>
<g id="a_node2"><a xlink:href="../TransportNetwork" xlink:title="&lt;TABLE&gt;">
<polygon fill="lightgray" stroke="none" points="178,-97.88 178,-114.12 274.5,-114.12 274.5,-97.88 178,-97.88"/>
<text xml:space="preserve" text-anchor="start" x="179" y="-101.88" font-family="Arial" font-size="12.00">TransportNetwork</text>
<polygon fill="none" stroke="black" points="177,-96.88 177,-115.12 275.5,-115.12 275.5,-96.88 177,-96.88"/>
</a>
</g>
</g>
<!-- PublicTransportSystem -->
<g id="node3" class="node">
<title>PublicTransportSystem</title>
<g id="a_node3"><a xlink:href="../PublicTransportSystem" xlink:title="&lt;TABLE&gt;">
<polygon fill="lightgray" stroke="none" points="89.38,-25.88 89.38,-42.12 215.12,-42.12 215.12,-25.88 89.38,-25.88"/>
<text xml:space="preserve" text-anchor="start" x="90.38" y="-29.88" font-family="Arial" font-size="12.00">PublicTransportSystem</text>
<polygon fill="none" stroke="black" points="88.38,-24.88 88.38,-43.12 216.12,-43.12 216.12,-24.88 88.38,-24.88"/>
</a>
</g>
</g>
<!-- PublicTransportSystem&#45;&gt;PublicTransportSystemThing -->
<g id="edge1" class="edge">
<title>PublicTransportSystem&#45;&gt;PublicTransportSystemThing</title>
<path fill="none" stroke="black" d="M134.74,-51.79C125.89,-60.28 114.97,-70.75 105.17,-80.15"/>
<polygon fill="none" stroke="black" points="102.81,-77.56 98.01,-87.01 107.65,-82.61 102.81,-77.56"/>
</g>
<!-- PublicTransportSystem&#45;&gt;TransportNetwork -->
<g id="edge2" class="edge">
<title>PublicTransportSystem&#45;&gt;TransportNetwork</title>
<path fill="none" stroke="black" d="M170,-51.79C178.97,-60.28 190.04,-70.75 199.98,-80.15"/>
<polygon fill="none" stroke="black" points="197.57,-82.69 207.24,-87.01 202.38,-77.6 197.57,-82.69"/>
</g>
<!-- Invis -->
</g>
</svg>
