<?xml version="1.0" encoding="UTF-8" standalone="no"?>
<!DOCTYPE svg PUBLIC "-//W3C//DTD SVG 1.1//EN"
 "http://www.w3.org/Graphics/SVG/1.1/DTD/svg11.dtd">
<!-- Generated by graphviz version 14.1.3 (20260303.0454)
 -->
<!-- Pages: 1 -->
<svg width="303pt" height="132pt"
 viewBox="0.00 0.00 303.00 132.00" xmlns="http://www.w3.org/2000/svg" xmlns:xlink="http://www.w3.org/1999/xlink">
<g id="graph0" class="graph" transform="scale(1 1) rotate(0) translate(4 128)">
<polygon fill="white" stroke="none" points="-4,4 -4,-128 298.88,-128 298.88,4 -4,4"/>
<g id="clust3" class="cluster">
<title>cluster_associated</title>
</g>
<!-- its&#45;location_LinearFeature -->
<g id="node1" class="node">
<title>its&#45;location_LinearFeature</title>
<g id="a_node1"><a xlink:href="https://w3id.org/itsdata/location/v1/LinearFeature" xlink:title="&lt;TABLE&gt;">
<polygon fill="lightgray" stroke="none" points="1,-97.88 1,-114.12 138.75,-114.12 138.75,-97.88 1,-97.88"/>
<text xml:space="preserve" text-anchor="start" x="2" y="-101.88" font-family="Arial" font-size="12.00">its&#45;location:LinearFeature</text>
<polygon fill="none" stroke="black" points="0,-96.88 0,-115.12 139.75,-115.12 139.75,-96.88 0,-96.88"/>
</a>
</g>
</g>
<!-- PublicTransportElement -->
<g id="node2" class="node">
<title>PublicTransportElement</title>
<g id="a_node2"><a xlink:href="../PublicTransportElement" xlink:title="&lt;TABLE&gt;">
<polygon fill="lightgray" stroke="none" points="158.75,-97.88 158.75,-114.12 289,-114.12 289,-97.88 158.75,-97.88"/>
<text xml:space="preserve" text-anchor="start" x="159.75" y="-101.88" font-family="Arial" font-size="12.00">PublicTransportElement</text>
<polygon fill="none" stroke="black" points="157.75,-96.88 157.75,-115.12 290,-115.12 290,-96.88 157.75,-96.88"/>
</a>
</g>
</g>
<!-- PublicTransportRoute -->
<g id="node3" class="node">
<title>PublicTransportRoute</title>
<g id="a_node3"><a xlink:href="../PublicTransportRoute" xlink:title="&lt;TABLE&gt;">
<polygon fill="lightgray" stroke="none" points="87.75,-25.88 87.75,-42.12 206,-42.12 206,-25.88 87.75,-25.88"/>
<text xml:space="preserve" text-anchor="start" x="88.75" y="-29.88" font-family="Arial" font-size="12.00">PublicTransportRoute</text>
<polygon fill="none" stroke="black" points="86.75,-24.88 86.75,-43.12 207,-43.12 207,-24.88 86.75,-24.88"/>
</a>
</g>
</g>
<!-- PublicTransportRoute&#45;&gt;its&#45;location_LinearFeature -->
<g id="edge1" class="edge">
<title>PublicTransportRoute&#45;&gt;its&#45;location_LinearFeature</title>
<path fill="none" stroke="black" d="M128.41,-51.79C118.98,-60.36 107.32,-70.96 96.9,-80.43"/>
<polygon fill="none" stroke="black" points="94.68,-77.72 89.63,-87.04 99.39,-82.9 94.68,-77.72"/>
</g>
<!-- PublicTransportRoute&#45;&gt;PublicTransportElement -->
<g id="edge2" class="edge">
<title>PublicTransportRoute&#45;&gt;PublicTransportElement</title>
<path fill="none" stroke="black" d="M165.34,-51.79C174.77,-60.36 186.43,-70.96 196.85,-80.43"/>
<polygon fill="none" stroke="black" points="194.36,-82.9 204.12,-87.04 199.07,-77.72 194.36,-82.9"/>
</g>
<!-- Invis -->
</g>
</svg>
