<?xml version="1.0" encoding="UTF-8" standalone="no"?>
<!DOCTYPE svg PUBLIC "-//W3C//DTD SVG 1.1//EN"
 "http://www.w3.org/Graphics/SVG/1.1/DTD/svg11.dtd">
<!-- Generated by graphviz version 14.1.3 (20260303.0454)
 -->
<!-- Pages: 1 -->
<svg width="280pt" height="132pt"
 viewBox="0.00 0.00 280.00 132.00" xmlns="http://www.w3.org/2000/svg" xmlns:xlink="http://www.w3.org/1999/xlink">
<g id="graph0" class="graph" transform="scale(1 1) rotate(0) translate(4 128)">
<polygon fill="white" stroke="none" points="-4,4 -4,-128 276.25,-128 276.25,4 -4,4"/>
<g id="clust3" class="cluster">
<title>cluster_associated</title>
</g>
<!-- NetworkElement -->
<g id="node1" class="node">
<title>NetworkElement</title>
<g id="a_node1"><a xlink:href="../NetworkElement" xlink:title="&lt;TABLE&gt;">
<polygon fill="lightgray" stroke="none" points="1,-97.88 1,-114.12 91.5,-114.12 91.5,-97.88 1,-97.88"/>
<text xml:space="preserve" text-anchor="start" x="2" y="-101.88" font-family="Arial" font-size="12.00">NetworkElement</text>
<polygon fill="none" stroke="black" points="0,-96.88 0,-115.12 92.5,-115.12 92.5,-96.88 0,-96.88"/>
</a>
</g>
</g>
<!-- PublicTransportSystemThing -->
<g id="node2" class="node">
<title>PublicTransportSystemThing</title>
<g id="a_node2"><a xlink:href="../PublicTransportSystemThing" xlink:title="&lt;TABLE&gt;">
<polygon fill="lightgray" stroke="none" points="112,-97.88 112,-114.12 268.5,-114.12 268.5,-97.88 112,-97.88"/>
<text xml:space="preserve" text-anchor="start" x="113" y="-101.88" font-family="Arial" font-size="12.00">PublicTransportSystemThing</text>
<polygon fill="none" stroke="black" points="111,-96.88 111,-115.12 269.5,-115.12 269.5,-96.88 111,-96.88"/>
</a>
</g>
</g>
<!-- PublicTransportElement -->
<g id="node3" class="node">
<title>PublicTransportElement</title>
<g id="a_node3"><a xlink:href="../PublicTransportElement" xlink:title="&lt;TABLE&gt;">
<polygon fill="lightgray" stroke="none" points="53.12,-25.88 53.12,-42.12 183.38,-42.12 183.38,-25.88 53.12,-25.88"/>
<text xml:space="preserve" text-anchor="start" x="54.12" y="-29.88" font-family="Arial" font-size="12.00">PublicTransportElement</text>
<polygon fill="none" stroke="black" points="52.12,-24.88 52.12,-43.12 184.38,-43.12 184.38,-24.88 52.12,-24.88"/>
</a>
</g>
</g>
<!-- PublicTransportElement&#45;&gt;NetworkElement -->
<g id="edge1" class="edge">
<title>PublicTransportElement&#45;&gt;NetworkElement</title>
<path fill="none" stroke="black" d="M100.98,-51.79C92.25,-60.28 81.48,-70.75 71.81,-80.15"/>
<polygon fill="none" stroke="black" points="69.49,-77.52 64.76,-87 74.37,-82.54 69.49,-77.52"/>
</g>
<!-- PublicTransportElement&#45;&gt;PublicTransportSystemThing -->
<g id="edge2" class="edge">
<title>PublicTransportElement&#45;&gt;PublicTransportSystemThing</title>
<path fill="none" stroke="black" d="M135.52,-51.79C144.25,-60.28 155.02,-70.75 164.69,-80.15"/>
<polygon fill="none" stroke="black" points="162.13,-82.54 171.74,-87 167.01,-77.52 162.13,-82.54"/>
</g>
<!-- Invis -->
</g>
</svg>
