<?xml version="1.0" encoding="UTF-8" standalone="no"?>
<!DOCTYPE svg PUBLIC "-//W3C//DTD SVG 1.1//EN"
 "http://www.w3.org/Graphics/SVG/1.1/DTD/svg11.dtd">
<!-- Generated by graphviz version 14.1.3 (20260303.0454)
 -->
<!-- Pages: 1 -->
<svg width="292pt" height="132pt"
 viewBox="0.00 0.00 292.00 132.00" xmlns="http://www.w3.org/2000/svg" xmlns:xlink="http://www.w3.org/1999/xlink">
<g id="graph0" class="graph" transform="scale(1 1) rotate(0) translate(4 128)">
<polygon fill="white" stroke="none" points="-4,4 -4,-128 288,-128 288,4 -4,4"/>
<g id="clust3" class="cluster">
<title>cluster_associated</title>
</g>
<!-- its&#45;location_PointFeature -->
<g id="node1" class="node">
<title>its&#45;location_PointFeature</title>
<g id="a_node1"><a xlink:href="https://w3id.org/itsdata/location/v1/PointFeature" xlink:title="&lt;TABLE&gt;">
<polygon fill="lightgray" stroke="none" points="1,-97.88 1,-114.12 132.75,-114.12 132.75,-97.88 1,-97.88"/>
<text xml:space="preserve" text-anchor="start" x="2" y="-101.88" font-family="Arial" font-size="12.00">its&#45;location:PointFeature</text>
<polygon fill="none" stroke="black" points="0,-96.88 0,-115.12 133.75,-115.12 133.75,-96.88 0,-96.88"/>
</a>
</g>
</g>
<!-- PublicTransportElement -->
<g id="node2" class="node">
<title>PublicTransportElement</title>
<g id="a_node2"><a xlink:href="../PublicTransportElement" xlink:title="&lt;TABLE&gt;">
<polygon fill="lightgray" stroke="none" points="152.75,-97.88 152.75,-114.12 283,-114.12 283,-97.88 152.75,-97.88"/>
<text xml:space="preserve" text-anchor="start" x="153.75" y="-101.88" font-family="Arial" font-size="12.00">PublicTransportElement</text>
<polygon fill="none" stroke="black" points="151.75,-96.88 151.75,-115.12 284,-115.12 284,-96.88 151.75,-96.88"/>
</a>
</g>
</g>
<!-- RoutePoint -->
<g id="node3" class="node">
<title>RoutePoint</title>
<g id="a_node3"><a xlink:href="../RoutePoint" xlink:title="&lt;TABLE&gt;">
<polygon fill="lightgray" stroke="none" points="110.88,-25.88 110.88,-42.12 172.88,-42.12 172.88,-25.88 110.88,-25.88"/>
<text xml:space="preserve" text-anchor="start" x="111.88" y="-29.88" font-family="Arial" font-size="12.00">RoutePoint</text>
<polygon fill="none" stroke="black" points="109.88,-24.88 109.88,-43.12 173.88,-43.12 173.88,-24.88 109.88,-24.88"/>
</a>
</g>
</g>
<!-- RoutePoint&#45;&gt;its&#45;location_PointFeature -->
<g id="edge1" class="edge">
<title>RoutePoint&#45;&gt;its&#45;location_PointFeature</title>
<path fill="none" stroke="black" d="M123.89,-51.79C114.7,-60.36 103.35,-70.96 93.2,-80.43"/>
<polygon fill="none" stroke="black" points="91.06,-77.64 86.14,-87.02 95.84,-82.76 91.06,-77.64"/>
</g>
<!-- RoutePoint&#45;&gt;PublicTransportElement -->
<g id="edge2" class="edge">
<title>RoutePoint&#45;&gt;PublicTransportElement</title>
<path fill="none" stroke="black" d="M160.1,-51.79C169.41,-60.36 180.91,-70.96 191.2,-80.43"/>
<polygon fill="none" stroke="black" points="188.64,-82.83 198.36,-87.03 193.38,-77.68 188.64,-82.83"/>
</g>
<!-- Invis -->
</g>
</svg>
