<?xml version="1.0" encoding="UTF-8" standalone="no"?>
<!DOCTYPE svg PUBLIC "-//W3C//DTD SVG 1.1//EN"
 "http://www.w3.org/Graphics/SVG/1.1/DTD/svg11.dtd">
<!-- Generated by graphviz version 14.1.3 (20260303.0454)
 -->
<!-- Pages: 1 -->
<svg width="212pt" height="132pt"
 viewBox="0.00 0.00 212.00 132.00" xmlns="http://www.w3.org/2000/svg" xmlns:xlink="http://www.w3.org/1999/xlink">
<g id="graph0" class="graph" transform="scale(1 1) rotate(0) translate(4 128)">
<polygon fill="white" stroke="none" points="-4,4 -4,-128 207.88,-128 207.88,4 -4,4"/>
<g id="clust3" class="cluster">
<title>cluster_associated</title>
</g>
<!-- its&#45;location_LocationCode -->
<g id="node1" class="node">
<title>its&#45;location_LocationCode</title>
<g id="a_node1"><a xlink:href="https://w3id.org/itsdata/location/v1/LocationCode" xlink:title="&lt;TABLE&gt;">
<polygon fill="lightgray" stroke="none" points="1,-97.88 1,-114.12 138.75,-114.12 138.75,-97.88 1,-97.88"/>
<text xml:space="preserve" text-anchor="start" x="2" y="-101.88" font-family="Arial" font-size="12.00">its&#45;location:LocationCode</text>
<polygon fill="none" stroke="black" points="0,-96.88 0,-115.12 139.75,-115.12 139.75,-96.88 0,-96.88"/>
</a>
</g>
</g>
<!-- ScheduledCode -->
<g id="node2" class="node">
<title>ScheduledCode</title>
<g id="a_node2"><a xlink:href="../ScheduledCode" xlink:title="&lt;TABLE&gt;">
<polygon fill="lightgray" stroke="none" points="25.38,-25.88 25.38,-42.12 114.38,-42.12 114.38,-25.88 25.38,-25.88"/>
<text xml:space="preserve" text-anchor="start" x="26.38" y="-29.88" font-family="Arial" font-size="12.00">ScheduledCode</text>
<polygon fill="none" stroke="black" points="24.38,-24.88 24.38,-43.12 115.38,-43.12 115.38,-24.88 24.38,-24.88"/>
</a>
</g>
</g>
<!-- ScheduledCode&#45;&gt;its&#45;location_LocationCode -->
<g id="edge1" class="edge">
<title>ScheduledCode&#45;&gt;its&#45;location_LocationCode</title>
<path fill="none" stroke="black" d="M69.88,-51.79C69.88,-59.25 69.88,-68.24 69.88,-76.69"/>
<polygon fill="none" stroke="black" points="66.38,-76.54 69.88,-86.54 73.38,-76.54 66.38,-76.54"/>
</g>
<!-- Invis -->
</g>
</svg>
