<?xml version="1.0" encoding="UTF-8" standalone="no"?>
<!DOCTYPE svg PUBLIC "-//W3C//DTD SVG 1.1//EN"
 "http://www.w3.org/Graphics/SVG/1.1/DTD/svg11.dtd">
<!-- Generated by graphviz version 14.1.3 (20260303.0454)
 -->
<!-- Pages: 1 -->
<svg width="298pt" height="132pt"
 viewBox="0.00 0.00 298.00 132.00" xmlns="http://www.w3.org/2000/svg" xmlns:xlink="http://www.w3.org/1999/xlink">
<g id="graph0" class="graph" transform="scale(1 1) rotate(0) translate(4 128)">
<polygon fill="white" stroke="none" points="-4,4 -4,-128 294.38,-128 294.38,4 -4,4"/>
<g id="clust3" class="cluster">
<title>cluster_associated</title>
</g>
<!-- its&#45;location_LocationGroup -->
<g id="node1" class="node">
<title>its&#45;location_LocationGroup</title>
<g id="a_node1"><a xlink:href="https://w3id.org/itsdata/location/v1/LocationGroup" xlink:title="&lt;TABLE&gt;">
<polygon fill="lightgray" stroke="none" points="1,-97.88 1,-114.12 142.5,-114.12 142.5,-97.88 1,-97.88"/>
<text xml:space="preserve" text-anchor="start" x="2" y="-101.88" font-family="Arial" font-size="12.00">its&#45;location:LocationGroup</text>
<polygon fill="none" stroke="black" points="0,-96.88 0,-115.12 143.5,-115.12 143.5,-96.88 0,-96.88"/>
</a>
</g>
</g>
<!-- TransportNetworkThing -->
<g id="node2" class="node">
<title>TransportNetworkThing</title>
<g id="a_node2"><a xlink:href="../TransportNetworkThing" xlink:title="&lt;TABLE&gt;">
<polygon fill="lightgray" stroke="none" points="162.12,-97.88 162.12,-114.12 289.38,-114.12 289.38,-97.88 162.12,-97.88"/>
<text xml:space="preserve" text-anchor="start" x="163.12" y="-101.88" font-family="Arial" font-size="12.00">TransportNetworkThing</text>
<polygon fill="none" stroke="black" points="161.12,-96.88 161.12,-115.12 290.38,-115.12 290.38,-96.88 161.12,-96.88"/>
</a>
</g>
</g>
<!-- TransportNetwork -->
<g id="node3" class="node">
<title>TransportNetwork</title>
<g id="a_node3"><a xlink:href="../TransportNetwork" xlink:title="&lt;TABLE&gt;">
<polygon fill="lightgray" stroke="none" points="100.5,-25.88 100.5,-42.12 197,-42.12 197,-25.88 100.5,-25.88"/>
<text xml:space="preserve" text-anchor="start" x="101.5" y="-29.88" font-family="Arial" font-size="12.00">TransportNetwork</text>
<polygon fill="none" stroke="black" points="99.5,-24.88 99.5,-43.12 198,-43.12 198,-24.88 99.5,-24.88"/>
</a>
</g>
</g>
<!-- TransportNetwork&#45;&gt;its&#45;location_LocationGroup -->
<g id="edge1" class="edge">
<title>TransportNetwork&#45;&gt;its&#45;location_LocationGroup</title>
<path fill="none" stroke="black" d="M130.28,-51.79C120.85,-60.36 109.2,-70.96 98.78,-80.43"/>
<polygon fill="none" stroke="black" points="96.55,-77.72 91.51,-87.04 101.26,-82.9 96.55,-77.72"/>
</g>
<!-- TransportNetwork&#45;&gt;TransportNetworkThing -->
<g id="edge2" class="edge">
<title>TransportNetwork&#45;&gt;TransportNetworkThing</title>
<path fill="none" stroke="black" d="M167.22,-51.79C176.65,-60.36 188.3,-70.96 198.72,-80.43"/>
<polygon fill="none" stroke="black" points="196.24,-82.9 205.99,-87.04 200.95,-77.72 196.24,-82.9"/>
</g>
<!-- Invis -->
</g>
</svg>
