<?xml version="1.0" encoding="UTF-8" standalone="no"?>
<!DOCTYPE svg PUBLIC "-//W3C//DTD SVG 1.1//EN"
 "http://www.w3.org/Graphics/SVG/1.1/DTD/svg11.dtd">
<!-- Generated by graphviz version 14.1.3 (20260303.0454)
 -->
<!-- Pages: 1 -->
<svg width="252pt" height="132pt"
 viewBox="0.00 0.00 252.00 132.00" xmlns="http://www.w3.org/2000/svg" xmlns:xlink="http://www.w3.org/1999/xlink">
<g id="graph0" class="graph" transform="scale(1 1) rotate(0) translate(4 128)">
<polygon fill="white" stroke="none" points="-4,4 -4,-128 248,-128 248,4 -4,4"/>
<g id="clust3" class="cluster">
<title>cluster_associated</title>
</g>
<!-- its&#45;location_Feature -->
<g id="node1" class="node">
<title>its&#45;location_Feature</title>
<g id="a_node1"><a xlink:href="https://w3id.org/itsdata/location/v1/Feature" xlink:title="&lt;TABLE&gt;">
<polygon fill="lightgray" stroke="none" points="1,-97.88 1,-114.12 105,-114.12 105,-97.88 1,-97.88"/>
<text xml:space="preserve" text-anchor="start" x="2" y="-101.88" font-family="Arial" font-size="12.00">its&#45;location:Feature</text>
<polygon fill="none" stroke="black" points="0,-96.88 0,-115.12 106,-115.12 106,-96.88 0,-96.88"/>
</a>
</g>
</g>
<!-- TransportAlertThing -->
<g id="node2" class="node">
<title>TransportAlertThing</title>
<g id="a_node2"><a xlink:href="../TransportAlertThing" xlink:title="&lt;TABLE&gt;">
<polygon fill="lightgray" stroke="none" points="125.12,-97.88 125.12,-114.12 232.88,-114.12 232.88,-97.88 125.12,-97.88"/>
<text xml:space="preserve" text-anchor="start" x="126.12" y="-101.88" font-family="Arial" font-size="12.00">TransportAlertThing</text>
<polygon fill="none" stroke="black" points="124.12,-96.88 124.12,-115.12 233.88,-115.12 233.88,-96.88 124.12,-96.88"/>
</a>
</g>
</g>
<!-- TransportAlert -->
<g id="node3" class="node">
<title>TransportAlert</title>
<g id="a_node3"><a xlink:href="../TransportAlert" xlink:title="&lt;TABLE&gt;">
<polygon fill="lightgray" stroke="none" points="77.5,-25.88 77.5,-42.12 154.5,-42.12 154.5,-25.88 77.5,-25.88"/>
<text xml:space="preserve" text-anchor="start" x="78.5" y="-29.88" font-family="Arial" font-size="12.00">TransportAlert</text>
<polygon fill="none" stroke="black" points="76.5,-24.88 76.5,-43.12 155.5,-43.12 155.5,-24.88 76.5,-24.88"/>
</a>
</g>
</g>
<!-- TransportAlert&#45;&gt;its&#45;location_Feature -->
<g id="edge1" class="edge">
<title>TransportAlert&#45;&gt;its&#45;location_Feature</title>
<path fill="none" stroke="black" d="M100.89,-51.79C93.4,-60.11 84.21,-70.32 75.88,-79.58"/>
<polygon fill="none" stroke="black" points="73.35,-77.16 69.26,-86.93 78.55,-81.84 73.35,-77.16"/>
</g>
<!-- TransportAlert&#45;&gt;TransportAlertThing -->
<g id="edge2" class="edge">
<title>TransportAlert&#45;&gt;TransportAlertThing</title>
<path fill="none" stroke="black" d="M131.11,-51.79C138.6,-60.11 147.79,-70.32 156.12,-79.58"/>
<polygon fill="none" stroke="black" points="153.45,-81.84 162.74,-86.93 158.65,-77.16 153.45,-81.84"/>
</g>
<!-- Invis -->
</g>
</svg>
