<?xml version="1.0" encoding="UTF-8" standalone="no"?>
<!DOCTYPE svg PUBLIC "-//W3C//DTD SVG 1.1//EN"
 "http://www.w3.org/Graphics/SVG/1.1/DTD/svg11.dtd">
<!-- Generated by graphviz version 14.1.3 (20260303.0454)
 -->
<!-- Pages: 1 -->
<svg width="200pt" height="132pt"
 viewBox="0.00 0.00 200.00 132.00" xmlns="http://www.w3.org/2000/svg" xmlns:xlink="http://www.w3.org/1999/xlink">
<g id="graph0" class="graph" transform="scale(1 1) rotate(0) translate(4 128)">
<polygon fill="white" stroke="none" points="-4,4 -4,-128 195.5,-128 195.5,4 -4,4"/>
<g id="clust3" class="cluster">
<title>cluster_associated</title>
</g>
<!-- TravelledWayLink -->
<g id="node1" class="node">
<title>TravelledWayLink</title>
<g id="a_node1"><a xlink:href="../TravelledWayLink" xlink:title="&lt;TABLE&gt;">
<polygon fill="lightgray" stroke="none" points="2.5,-97.88 2.5,-114.12 100.5,-114.12 100.5,-97.88 2.5,-97.88"/>
<text xml:space="preserve" text-anchor="start" x="3.5" y="-101.88" font-family="Arial" font-size="12.00">TravelledWayLink</text>
<polygon fill="none" stroke="black" points="1.5,-96.88 1.5,-115.12 101.5,-115.12 101.5,-96.88 1.5,-96.88"/>
</a>
</g>
</g>
<!-- TravelCorridorLink -->
<g id="node2" class="node">
<title>TravelCorridorLink</title>
<g id="a_node2"><a xlink:href="../TravelCorridorLink" xlink:title="&lt;TABLE&gt;">
<polygon fill="lightgray" stroke="none" points="1,-25.88 1,-42.12 102,-42.12 102,-25.88 1,-25.88"/>
<text xml:space="preserve" text-anchor="start" x="2" y="-29.88" font-family="Arial" font-size="12.00">TravelCorridorLink</text>
<polygon fill="none" stroke="black" points="0,-24.88 0,-43.12 103,-43.12 103,-24.88 0,-24.88"/>
</a>
</g>
</g>
<!-- TravelCorridorLink&#45;&gt;TravelledWayLink -->
<g id="edge1" class="edge">
<title>TravelCorridorLink&#45;&gt;TravelledWayLink</title>
<path fill="none" stroke="black" d="M51.5,-51.79C51.5,-59.25 51.5,-68.24 51.5,-76.69"/>
<polygon fill="none" stroke="black" points="48,-76.54 51.5,-86.54 55,-76.54 48,-76.54"/>
</g>
<!-- Invis -->
</g>
</svg>
