<?xml version="1.0" encoding="UTF-8" standalone="no"?>
<!DOCTYPE svg PUBLIC "-//W3C//DTD SVG 1.1//EN"
 "http://www.w3.org/Graphics/SVG/1.1/DTD/svg11.dtd">
<!-- Generated by graphviz version 14.1.3 (20260303.0454)
 -->
<!-- Pages: 1 -->
<svg width="224pt" height="132pt"
 viewBox="0.00 0.00 224.00 132.00" xmlns="http://www.w3.org/2000/svg" xmlns:xlink="http://www.w3.org/1999/xlink">
<g id="graph0" class="graph" transform="scale(1 1) rotate(0) translate(4 128)">
<polygon fill="white" stroke="none" points="-4,4 -4,-128 220.25,-128 220.25,4 -4,4"/>
<g id="clust3" class="cluster">
<title>cluster_associated</title>
</g>
<!-- TravelledWaySegment -->
<g id="node1" class="node">
<title>TravelledWaySegment</title>
<g id="a_node1"><a xlink:href="../TravelledWaySegment" xlink:title="&lt;TABLE&gt;">
<polygon fill="lightgray" stroke="none" points="2.5,-97.88 2.5,-114.12 126,-114.12 126,-97.88 2.5,-97.88"/>
<text xml:space="preserve" text-anchor="start" x="3.5" y="-101.88" font-family="Arial" font-size="12.00">TravelledWaySegment</text>
<polygon fill="none" stroke="black" points="1.5,-96.88 1.5,-115.12 127,-115.12 127,-96.88 1.5,-96.88"/>
</a>
</g>
</g>
<!-- TravelCorridorSegment -->
<g id="node2" class="node">
<title>TravelCorridorSegment</title>
<g id="a_node2"><a xlink:href="../TravelCorridorSegment" xlink:title="&lt;TABLE&gt;">
<polygon fill="lightgray" stroke="none" points="1,-25.88 1,-42.12 127.5,-42.12 127.5,-25.88 1,-25.88"/>
<text xml:space="preserve" text-anchor="start" x="2" y="-29.88" font-family="Arial" font-size="12.00">TravelCorridorSegment</text>
<polygon fill="none" stroke="black" points="0,-24.88 0,-43.12 128.5,-43.12 128.5,-24.88 0,-24.88"/>
</a>
</g>
</g>
<!-- TravelCorridorSegment&#45;&gt;TravelledWaySegment -->
<g id="edge1" class="edge">
<title>TravelCorridorSegment&#45;&gt;TravelledWaySegment</title>
<path fill="none" stroke="black" d="M64.25,-51.79C64.25,-59.25 64.25,-68.24 64.25,-76.69"/>
<polygon fill="none" stroke="black" points="60.75,-76.54 64.25,-86.54 67.75,-76.54 60.75,-76.54"/>
</g>
<!-- Invis -->
</g>
</svg>
