<?xml version="1.0" encoding="UTF-8" standalone="no"?>
<!DOCTYPE svg PUBLIC "-//W3C//DTD SVG 1.1//EN"
 "http://www.w3.org/Graphics/SVG/1.1/DTD/svg11.dtd">
<!-- Generated by graphviz version 14.1.3 (20260303.0454)
 -->
<!-- Pages: 1 -->
<svg width="215pt" height="132pt"
 viewBox="0.00 0.00 215.00 132.00" xmlns="http://www.w3.org/2000/svg" xmlns:xlink="http://www.w3.org/1999/xlink">
<g id="graph0" class="graph" transform="scale(1 1) rotate(0) translate(4 128)">
<polygon fill="white" stroke="none" points="-4,4 -4,-128 210.62,-128 210.62,4 -4,4"/>
<g id="clust3" class="cluster">
<title>cluster_associated</title>
</g>
<!-- its&#45;location_LocationThing -->
<g id="node1" class="node">
<title>its&#45;location_LocationThing</title>
<g id="a_node1"><a xlink:href="https://w3id.org/itsdata/location/v1/LocationThing" xlink:title="&lt;TABLE&gt;">
<polygon fill="lightgray" stroke="none" points="1,-97.88 1,-114.12 140.25,-114.12 140.25,-97.88 1,-97.88"/>
<text xml:space="preserve" text-anchor="start" x="2" y="-101.88" font-family="Arial" font-size="12.00">its&#45;location:LocationThing</text>
<polygon fill="none" stroke="black" points="0,-96.88 0,-115.12 141.25,-115.12 141.25,-96.88 0,-96.88"/>
</a>
</g>
</g>
<!-- VehicleFlowRate -->
<g id="node2" class="node">
<title>VehicleFlowRate</title>
<g id="a_node2"><a xlink:href="../VehicleFlowRate" xlink:title="&lt;TABLE&gt;">
<polygon fill="lightgray" stroke="none" points="23.88,-25.88 23.88,-42.12 117.38,-42.12 117.38,-25.88 23.88,-25.88"/>
<text xml:space="preserve" text-anchor="start" x="24.88" y="-29.88" font-family="Arial" font-size="12.00">VehicleFlowRate</text>
<polygon fill="none" stroke="black" points="22.88,-24.88 22.88,-43.12 118.38,-43.12 118.38,-24.88 22.88,-24.88"/>
</a>
</g>
</g>
<!-- VehicleFlowRate&#45;&gt;its&#45;location_LocationThing -->
<g id="edge1" class="edge">
<title>VehicleFlowRate&#45;&gt;its&#45;location_LocationThing</title>
<path fill="none" stroke="black" d="M70.62,-51.79C70.62,-59.25 70.62,-68.24 70.62,-76.69"/>
<polygon fill="none" stroke="black" points="67.13,-76.54 70.63,-86.54 74.13,-76.54 67.13,-76.54"/>
</g>
<!-- Invis -->
</g>
</svg>
